<svg width="64" height="64" viewBox="0 0 160 160" fill="none" xmlns="http://www.w3.org/2000/svg">
<path d="M88.2061 132.343H85.1367V105.332H88.2061V132.343ZM96.4268 131.457L93.3945 131.938L89.1689 105.259L92.2012 104.779L96.4268 131.457ZM84.1729 105.256L79.9473 131.934L76.916 131.453L81.1416 104.775L84.1729 105.256ZM80.2012 104.551L71.8545 130.239L68.9355 129.291L77.2822 103.603L80.2012 104.551ZM104.406 129.291L101.487 130.239L93.1406 104.551L96.0596 103.603L104.406 129.291ZM76.3896 103.229L64.127 127.297L61.3916 125.903L73.6543 101.836L76.3896 103.229ZM111.95 125.902L109.216 127.296L96.9531 103.229L99.6875 101.836L111.95 125.902ZM72.8301 101.335L56.9541 123.188L54.4707 121.384L70.3467 99.5312L72.8301 101.335ZM118.872 121.379L116.389 123.184L100.513 101.331L102.996 99.5273L118.872 121.379ZM69.6113 98.9014L50.5117 118.001L48.3418 115.83L67.4414 96.7314L69.6113 98.9014ZM125 115.83L122.83 118L103.73 98.9004L105.9 96.7305L125 115.83ZM66.8135 95.9951L44.9619 111.871L43.1572 109.388L65.0098 93.5117L66.8135 95.9951ZM64.5039 92.6914L40.4365 104.954L39.0439 102.22L63.1104 89.957L64.5039 92.6914ZM62.7412 89.0635L37.0518 97.4102L36.1035 94.4912L61.792 86.1436L62.7412 89.0635ZM61.5674 85.2002L34.8896 89.4258L34.4092 86.3936L61.0869 82.168L61.5674 85.2002ZM61.0107 81.208H34V78.1387H61.0107V81.208ZM61.5664 74.1426L61.0869 77.1738L34.4082 72.9482L34.8887 69.917L61.5664 74.1426ZM62.7402 70.2822L61.792 73.2021L36.1035 64.8555L37.0518 61.9355L62.7402 70.2822ZM64.5039 66.6572L63.1104 69.3926L39.0439 57.1299L40.4375 54.3945L64.5039 66.6572ZM66.8135 63.3467L65.0098 65.8301L43.1572 49.9531L44.9619 47.4697L66.8135 63.3467ZM69.6113 60.4414L67.4414 62.6123L48.3418 43.5127L50.5127 41.3428L69.6113 60.4414ZM125 43.5117L105.901 62.6113L103.73 60.4414L122.83 41.3418L125 43.5117ZM72.8301 58.0117L70.3467 59.8154L54.4697 37.9639L56.9531 36.1592L72.8301 58.0117ZM118.871 37.959L102.995 59.8115L100.512 58.0068L116.388 36.1553L118.871 37.959ZM76.3887 56.1133L73.6543 57.5068L61.3916 33.4404L64.126 32.0469L76.3887 56.1133ZM111.95 33.4346L99.6875 57.501L96.9521 56.1074L109.215 32.041L111.95 33.4346ZM80.2012 54.792L77.2822 55.7402L68.9355 30.0518L71.8545 29.1025L80.2012 54.792ZM104.406 30.0518L96.0596 55.7402L93.1406 54.792L101.487 29.1035L104.406 30.0518ZM96.4258 27.8887L92.2002 54.5674L89.1689 54.0869L93.3945 27.4092L96.4258 27.8887ZM84.1729 54.084L81.1406 54.5635L76.915 27.8857L79.9473 27.4053L84.1729 54.084ZM88.2051 54.0107H85.1357V27H88.2051V54.0107Z" fill="url(#paint0_linear_801_624)"/>
<defs>
<linearGradient id="paint0_linear_801_624" x1="125.525" y1="27.3523" x2="125.525" y2="132.142" gradientUnits="userSpaceOnUse">
    <stop stop-color="#FFF"/>
    <stop offset="0.5" stop-color="#FFF"/>
    <stop offset="1" stop-color="#FFF"/>
</linearGradient>
</defs>
</svg>
