<svg width="433" height="166" viewBox="0 0 433 166" fill="none" xmlns="http://www.w3.org/2000/svg">
<path d="M40.8652 110.151H38.5518V89.7881H40.8652V110.151ZM47.0625 109.483L44.7773 109.846L41.5918 89.7324L43.877 89.3711L47.0625 109.483ZM37.8252 89.7314L34.6396 109.844L32.3545 109.481L35.54 89.3691L37.8252 89.7314ZM34.8311 89.1992L28.5381 108.566L26.3379 107.851L32.6299 88.4844L34.8311 89.1992ZM53.0791 107.85L50.8779 108.565L44.5859 89.1982L46.7861 88.4834L53.0791 107.85ZM31.957 88.2051L22.7129 106.349L20.6504 105.299L29.8955 87.1553L31.957 88.2051ZM58.7666 105.297L56.7051 106.348L47.46 88.2041L49.5215 87.1533L58.7666 105.297ZM29.2744 86.7744L17.3047 103.249L15.4326 101.889L27.4023 85.415L29.2744 86.7744ZM63.9854 101.887L62.1133 103.247L50.1436 86.7725L52.0156 85.4131L63.9854 101.887ZM26.8477 84.9414L12.4482 99.3398L10.8125 97.7041L25.2109 83.3047L26.8477 84.9414ZM68.6045 97.7021L66.9678 99.3389L52.5693 84.9395L54.2051 83.3037L68.6045 97.7021ZM24.7383 82.75L8.26367 94.7188L6.90332 92.8467L23.3779 80.8779L24.7383 82.75ZM22.9971 80.2578L4.85254 89.5029L3.80273 87.4404L21.9463 78.1963L22.9971 80.2578ZM21.668 77.5225L2.30078 83.8154L1.58594 81.6143L20.9521 75.3223L21.668 77.5225ZM20.7832 74.6123L0.670898 77.7979L0.308594 75.5127L20.4209 72.3271L20.7832 74.6123ZM20.3633 71.5996H0V69.2861H20.3633V71.5996ZM20.7822 66.2734L20.4199 68.5586L0.307617 65.373L0.669922 63.0879L20.7822 66.2734ZM21.667 63.3633L20.9521 65.5645L1.58594 59.2715L2.30078 57.0713L21.667 63.3633ZM22.9971 60.6309L21.9463 62.6924L3.80273 53.4473L4.85352 51.3857L22.9971 60.6309ZM24.7383 58.1348L23.3779 60.0068L6.9043 48.0381L8.26367 46.166L24.7383 58.1348ZM26.8477 55.9463L25.2109 57.582L10.8125 43.1836L12.4482 41.5469L26.8477 55.9463ZM68.6045 43.1816L54.2061 57.5811L52.5693 55.9453L66.9688 41.5459L68.6045 43.1816ZM29.2734 54.1133L27.4014 55.4736L15.4326 38.999L17.3047 37.6387L29.2734 54.1133ZM63.9844 38.9971L52.0146 55.4717L50.1426 54.1113L62.1123 37.6367L63.9844 38.9971ZM31.957 52.6826L29.8955 53.7324L20.6504 35.5889L22.7119 34.5381L31.957 52.6826ZM58.7666 35.5869L49.5215 53.7314L47.46 52.6807L56.7041 34.5371L58.7666 35.5869ZM34.8311 51.6875L32.6299 52.4023L26.3379 33.0361L28.5381 32.3213L34.8311 51.6875ZM53.0791 33.0352L46.7861 52.4014L44.5859 51.6865L50.8779 32.3203L53.0791 33.0352ZM47.0625 31.4043L43.877 51.5166L41.5918 51.1553L44.7773 31.042L47.0625 31.4043ZM37.8252 51.1533L35.5391 51.5146L32.3535 31.4023L34.6396 31.04L37.8252 51.1533ZM40.8652 51.0977H38.5508V30.7344H40.8652V51.0977Z" fill="url(#paint0_linear_801_544)"/>
<path d="M418.02 145.984L423.875 130H430.091L416.963 166H410.747L415.091 154L406.451 130H412.859L418.02 145.984ZM326.684 133C327.468 131.912 328.436 131.032 329.588 130.36C330.756 129.672 332.092 129.328 333.596 129.328C335.932 129.328 338.06 129.896 339.979 131.032C341.899 132.168 343.427 133.696 344.563 135.616C345.699 137.52 346.268 139.632 346.268 141.952C346.268 143.696 345.939 145.336 345.283 146.872C344.627 148.408 343.716 149.76 342.548 150.928C341.396 152.08 340.052 152.984 338.516 153.64C336.996 154.296 335.356 154.624 333.596 154.624C332.092 154.624 330.756 154.288 329.588 153.616C328.436 152.928 327.468 152.04 326.684 150.952V154H320.828V118H326.684V133ZM374.734 129.328C376.318 129.328 377.734 129.68 378.982 130.384C380.246 131.088 381.318 131.984 382.198 133.072L381.935 130H387.79V154H381.935L381.67 151.024C381.014 152.096 380.142 152.968 379.054 153.64C377.982 154.296 376.71 154.624 375.238 154.624C373.462 154.624 371.798 154.288 370.246 153.616C368.694 152.944 367.327 152.016 366.143 150.832C364.975 149.648 364.054 148.28 363.382 146.729C362.726 145.177 362.398 143.512 362.398 141.736C362.398 140.024 362.71 138.416 363.334 136.912C363.974 135.408 364.862 134.088 365.998 132.952C367.134 131.816 368.447 130.928 369.935 130.288C371.422 129.648 373.023 129.328 374.734 129.328ZM361.07 129.328C361.95 129.328 362.831 129.456 363.711 129.712L361.406 135.616C360.798 135.376 360.191 135.256 359.583 135.256C358.639 135.256 357.774 135.488 356.99 135.952C356.222 136.4 355.607 137.016 355.143 137.8C354.695 138.568 354.471 139.424 354.471 140.368V154H348.614L348.591 130H354.446L354.471 132.136C355.287 131.272 356.263 130.592 357.398 130.096C358.534 129.584 359.758 129.328 361.07 129.328ZM403.612 129.328C404.492 129.328 405.373 129.456 406.253 129.712L403.948 135.616C403.34 135.376 402.733 135.256 402.125 135.256C401.181 135.256 400.316 135.488 399.532 135.952C398.764 136.4 398.149 137.016 397.685 137.8C397.237 138.568 397.013 139.424 397.013 140.368V154H391.156L391.133 130H396.988L397.013 132.136C397.829 131.272 398.805 130.592 399.94 130.096C401.076 129.584 402.3 129.328 403.612 129.328ZM292.72 148.143H306.712V153.998H286.864V120.398H292.72V148.143ZM316.404 153.998H310.549V129.998H316.404V153.998ZM375.094 134.992C373.862 134.992 372.734 135.312 371.71 135.952C370.702 136.576 369.894 137.416 369.286 138.472C368.694 139.528 368.398 140.704 368.398 142C368.398 143.296 368.703 144.472 369.311 145.528C369.919 146.584 370.726 147.424 371.734 148.048C372.758 148.672 373.878 148.984 375.094 148.984C376.342 148.984 377.446 148.672 378.406 148.048C379.366 147.424 380.118 146.584 380.662 145.528C381.206 144.456 381.479 143.28 381.479 142C381.478 140.704 381.206 139.528 380.662 138.472C380.118 137.4 379.358 136.552 378.382 135.928C377.422 135.304 376.326 134.992 375.094 134.992ZM333.523 134.968C332.308 134.968 331.22 135.288 330.26 135.928C329.3 136.552 328.548 137.4 328.004 138.472C327.46 139.528 327.188 140.688 327.188 141.952C327.188 143.248 327.46 144.432 328.004 145.504C328.548 146.56 329.3 147.4 330.26 148.024C331.22 148.648 332.308 148.96 333.523 148.96C334.771 148.96 335.899 148.648 336.907 148.024C337.931 147.384 338.747 146.536 339.355 145.48C339.963 144.425 340.268 143.248 340.268 141.952C340.268 140.672 339.963 139.504 339.355 138.448C338.747 137.376 337.931 136.528 336.907 135.904C335.883 135.28 334.755 134.968 333.523 134.968ZM313.501 120.902C314.349 120.902 315.061 121.191 315.637 121.767C316.229 122.343 316.524 123.054 316.524 123.902C316.524 124.766 316.236 125.486 315.66 126.062C315.084 126.622 314.372 126.902 313.524 126.902C312.661 126.902 311.933 126.622 311.341 126.062C310.749 125.486 310.453 124.766 310.453 123.902C310.453 123.054 310.749 122.343 311.341 121.767C311.933 121.191 312.653 120.902 313.501 120.902ZM241.383 33.9844C248.007 33.9845 254.03 35.6888 259.454 39.0967C264.926 42.5047 269.27 47.0886 272.486 52.8486C275.75 58.6085 277.383 64.9922 277.383 72C277.383 77.232 276.446 82.1285 274.574 86.6885C272.702 91.2484 270.11 95.2802 266.798 98.7842C263.534 102.24 259.718 104.952 255.351 106.92C251.031 108.888 246.375 109.872 241.383 109.872C234.759 109.872 228.71 108.169 223.238 104.761C217.814 101.353 213.47 96.7921 210.206 91.0801C206.99 85.3202 205.383 78.9599 205.383 72C205.383 66.7201 206.318 61.8001 208.19 57.2402C210.062 52.6323 212.631 48.6005 215.895 45.1445C219.206 41.6406 223.046 38.9045 227.414 36.9365C231.782 34.9685 236.439 33.9844 241.383 33.9844ZM396.284 33.9844C402.908 33.9845 408.932 35.6888 414.355 39.0967C419.827 42.5047 424.172 47.0886 427.388 52.8486C430.652 58.6085 432.284 64.9922 432.284 72C432.284 77.232 431.348 82.1285 429.476 86.6885C427.604 91.2484 425.011 95.2802 421.699 98.7842C418.435 102.24 414.62 104.952 410.252 106.92C405.932 108.888 401.276 109.872 396.284 109.872C389.66 109.872 383.612 108.169 378.14 104.761C372.716 101.353 368.371 96.7921 365.107 91.0801C361.892 85.3202 360.284 78.9599 360.284 72C360.284 66.7201 361.22 61.8001 363.092 57.2402C364.964 52.6323 367.532 48.6005 370.796 45.1445C374.108 41.6406 377.948 38.9045 382.315 36.9365C386.683 34.9685 391.34 33.9844 396.284 33.9844ZM99.8633 42.4082C102.311 39.8162 105.239 37.7761 108.647 36.2881C112.055 34.7522 115.727 33.9844 119.663 33.9844C124.895 33.9844 129.671 35.2801 133.991 37.8721C138.311 40.4161 141.743 43.848 144.287 48.168C146.879 52.44 148.175 57.2161 148.175 62.4961V108H130.607V67.1045C130.607 64.2727 129.911 61.7043 128.52 59.4004C127.128 57.0485 125.255 55.2004 122.903 53.8564C120.599 52.4645 118.031 51.7676 115.199 51.7676C112.367 51.7676 109.775 52.4644 107.423 53.8564C105.119 55.2004 103.271 57.0485 101.879 59.4004C100.535 61.7043 99.8633 64.2727 99.8633 67.1045V108H82.2949L82.2236 0H99.791L99.8633 42.4082ZM198.52 33.9844C201.159 33.9844 203.8 34.3688 206.439 35.1367L199.528 52.8486C197.704 52.1286 195.88 51.7686 194.056 51.7686C191.224 51.7686 188.632 52.4646 186.28 53.8564C183.976 55.2004 182.127 57.0484 180.735 59.4004C179.391 61.7043 178.72 64.2726 178.72 67.1045V108H161.151L161.08 36H178.647L178.72 42.4082C181.168 39.8162 184.096 37.7761 187.504 36.2881C190.912 34.7522 194.584 33.9844 198.52 33.9844ZM324.593 33.9844C329.825 33.9844 334.601 35.2802 338.921 37.8721C343.241 40.416 346.673 43.8482 349.217 48.168C351.809 52.4399 353.105 57.2162 353.105 62.4961V108H335.537V67.1045C335.537 64.2725 334.841 61.7044 333.449 59.4004C332.057 57.0484 330.185 55.2004 327.833 53.8564C325.529 52.4645 322.961 51.7686 320.129 51.7686C317.297 51.7686 314.705 52.4646 312.354 53.8564C310.05 55.2004 308.202 57.0485 306.81 59.4004C305.466 61.7044 304.793 64.2725 304.793 67.1045V108H287.225L287.153 36H304.721L304.793 42.4082C307.241 39.8162 310.169 37.7761 313.577 36.2881C316.985 34.7522 320.657 33.9844 324.593 33.9844ZM241.383 51.5527C237.927 51.5527 234.806 52.4884 232.022 54.3604C229.238 56.2324 227.03 58.7286 225.398 61.8486C223.767 64.9685 222.95 68.3522 222.95 72C222.95 75.7919 223.791 79.2239 225.471 82.2959C227.151 85.3679 229.382 87.8166 232.166 89.6406C234.998 91.4166 238.071 92.3047 241.383 92.3047C244.887 92.3046 248.031 91.368 250.814 89.4961C253.598 87.6241 255.782 85.152 257.366 82.0801C258.998 79.0081 259.814 75.6479 259.814 72C259.814 68.2561 258.974 64.8483 257.294 61.7764C255.662 58.6565 253.43 56.1843 250.599 54.3604C247.815 52.4884 244.743 51.5528 241.383 51.5527ZM396.284 51.5527C392.828 51.5527 389.708 52.4884 386.924 54.3604C384.14 56.2324 381.932 58.7286 380.3 61.8486C378.668 64.9685 377.852 68.3522 377.852 72C377.852 75.7919 378.692 79.2239 380.372 82.2959C382.052 85.3679 384.283 87.8166 387.067 89.6406C389.899 91.4166 392.972 92.3047 396.284 92.3047C399.788 92.3046 402.932 91.368 405.716 89.4961C408.5 87.6241 410.684 85.152 412.268 82.0801C413.9 79.0081 414.716 75.6479 414.716 72C414.716 68.2561 413.875 64.8483 412.195 61.7764C410.563 58.6565 408.332 56.1843 405.5 54.3604C402.716 52.4884 399.644 51.5528 396.284 51.5527Z" fill="white"/>
<defs>
<linearGradient id="paint0_linear_801_544" x1="69" y1="31" x2="69" y2="110" gradientUnits="userSpaceOnUse">
<stop stop-color="#FF6F6F"/>
<stop offset="0.5" stop-color="#4C00FF"/>
<stop offset="1" stop-color="#3CC7FF"/>
</linearGradient>
</defs>
</svg>
